<svg width="80" height="80" viewBox="0 0 80 80" fill="none" xmlns="http://www.w3.org/2000/svg">
<foreignObject x="0" y="-4" width="80" height="84"><div xmlns="http://www.w3.org/1999/xhtml" style="backdrop-filter:blur(8px);clip-path:url(#bgblur_0_51_106_clip_path);height:100%;width:100%"></div></foreignObject><g filter="url(#filter0_d_51_106)" data-figma-bg-blur-radius="16">
<circle cx="40" cy="36" r="24" fill="#10B981"/>
</g>
<g filter="url(#filter1_d_51_106)">
<path d="M49 38H47V34H49V36V38ZM51.4142 34.5858C52.1953 35.3668 52.1953 36.6332 51.4142 37.4142L38.6863 50.1421C37.9052 50.9232 36.6389 50.9232 35.8579 50.1421C35.0768 49.3611 35.0768 48.0948 35.8579 47.3137L47.1716 36L35.8579 24.6863C35.0768 23.9052 35.0768 22.6389 35.8579 21.8579C36.6389 21.0768 37.9052 21.0768 38.6863 21.8579L51.4142 34.5858ZM49 36V34H50V36V38H49V36Z" fill="#F8FAFC"/>
</g>
<defs>
<filter id="filter0_d_51_106" x="0" y="-4" width="80" height="84" filterUnits="userSpaceOnUse" color-interpolation-filters="sRGB">
<feFlood flood-opacity="0" result="BackgroundImageFix"/>
<feColorMatrix in="SourceAlpha" type="matrix" values="0 0 0 0 0 0 0 0 0 0 0 0 0 0 0 0 0 0 127 0" result="hardAlpha"/>
<feOffset dy="4"/>
<feGaussianBlur stdDeviation="8"/>
<feComposite in2="hardAlpha" operator="out"/>
<feColorMatrix type="matrix" values="0 0 0 0 0.0627451 0 0 0 0 0.72549 0 0 0 0 0.505882 0 0 0 0.2 0"/>
<feBlend mode="normal" in2="BackgroundImageFix" result="effect1_dropShadow_51_106"/>
<feBlend mode="normal" in="SourceGraphic" in2="effect1_dropShadow_51_106" result="shape"/>
</filter>
<clipPath id="bgblur_0_51_106_clip_path" transform="translate(0 4)"><circle cx="40" cy="36" r="24"/>
</clipPath><filter id="filter1_d_51_106" x="31.2725" y="21.272" width="24.7275" height="37.4561" filterUnits="userSpaceOnUse" color-interpolation-filters="sRGB">
<feFlood flood-opacity="0" result="BackgroundImageFix"/>
<feColorMatrix in="SourceAlpha" type="matrix" values="0 0 0 0 0 0 0 0 0 0 0 0 0 0 0 0 0 0 127 0" result="hardAlpha"/>
<feOffset dy="4"/>
<feGaussianBlur stdDeviation="2"/>
<feComposite in2="hardAlpha" operator="out"/>
<feColorMatrix type="matrix" values="0 0 0 0 0 0 0 0 0 0 0 0 0 0 0 0 0 0 0.25 0"/>
<feBlend mode="normal" in2="BackgroundImageFix" result="effect1_dropShadow_51_106"/>
<feBlend mode="normal" in="SourceGraphic" in2="effect1_dropShadow_51_106" result="shape"/>
</filter>
</defs>
</svg>
